<svg xmlns="http://www.w3.org/2000/svg" viewBox="0 0 150 133.5"><path d="M7.5 118.5h5.3v-17h7.4v-4H.1v4h7.4v17zm36.1 0l-5.2-6.8a7.5 7.5 0 0 0 3.5-2.6 6.5 6.5 0 0 0 1.2-4 7 7 0 0 0-1.2-4 7.5 7.5 0 0 0-3.5-2.6c-1.7-.7-3.5-1-5.3-.9h-10v21h5.3v-5.8h4.9l4.5 5.8 5.8-.1zm-5.9-13.4c.1 1.1-.4 2.1-1.3 2.7-1.1.7-2.4 1-3.7 1h-4.4v-7.3h4.4a6 6 0 0 1 3.7.9c.9.6 1.4 1.6 1.3 2.7zm9.7 13.4h5.3v-21h-5.3v21zm27.7-21l-7.1 15-7-15h-5.8l10 21h5.3l10-21h-5.4zm13.1 17.1v-4.9h10.7v-3.8H88.2v-4.6h12.1v-3.9H82.9v21h17.9v-3.9l-12.6.1zm32.7-17.1v12.8l-11.5-12.8H105v21h5.3v-12.8l11.5 12.8h4.4v-21h-5.3zm15.5 21h5.3v-17h7.4v-4H129v4h7.4v17z"/><path fill="#414141" fill-rule="evenodd" d="M6.9 133.5c1.1.1 2.2-.4 2.9-1.2l-.8-.8c-.5.6-1.3.9-2.1.9-.5 0-1-.1-1.4-.4a2.8 2.8 0 0 1-1-3.8c.2-.4.6-.7 1-1 .4-.2.9-.4 1.4-.3.8 0 1.5.3 2.1.9l.8-.8a3.8 3.8 0 0 0-2.9-1.2c-.7 0-1.4.2-2 .5a3.8 3.8 0 0 0-1.5 5.1c.3.7.9 1.2 1.5 1.5.6.4 1.3.6 2 .6zm8.5 0c.7 0 1.4-.2 2.1-.5 1.8-1 2.5-3.2 1.5-5.1-.3-.7-.9-1.2-1.5-1.5a4.3 4.3 0 0 0-4.1 0 3.8 3.8 0 0 0-1.5 5.1c.3.7.9 1.2 1.5 1.5a4 4 0 0 0 2 .5zm0-1.1c-.5 0-1-.1-1.4-.4-.4-.2-.7-.6-1-1-.5-.9-.5-1.9 0-2.8.2-.4.6-.7 1-1 .9-.5 1.9-.5 2.8 0 .4.2.7.6 1 1 .5.9.5 1.9 0 2.8-.2.4-.6.7-1 1-.5.3-.9.4-1.4.4zM27 126v5.2l-4.3-5.2h-1v7.4H23v-5.2l4.3 5.2h1V126H27zm9.7 1v-1h-5.4v7.4h1.3v-2.9h3.7v-1h-3.7V127h4.1zm5.5 6.5c.7 0 1.4-.2 2.1-.5 1.8-1 2.5-3.2 1.5-5.1-.3-.7-.9-1.2-1.5-1.5a4.3 4.3 0 0 0-4.1 0 3.8 3.8 0 0 0-1.5 5.1c.3.7.9 1.2 1.5 1.5.6.3 1.3.5 2 .5zm0-1.1c-.5 0-1-.1-1.4-.4-.4-.2-.7-.6-1-1-.5-.9-.5-1.9 0-2.8.2-.4.6-.7 1-1 .9-.5 1.9-.5 2.8 0 .4.2.7.6 1 1 .5.9.5 1.9 0 2.8-.2.4-.6.7-1 1-.4.3-.9.4-1.4.4zm12.6 1L53 131c.5-.2.9-.5 1.2-.9.3-.4.4-.9.4-1.4 0-.7-.3-1.4-.8-1.9-.7-.5-1.5-.7-2.3-.7h-3v7.4h1.3v-2.2h2.1l1.6 2.2 1.3-.1zm-3.3-3.2h-1.7V127h1.7c.5 0 1 .1 1.5.4.6.6.7 1.6.1 2.2l-.1.1a3 3 0 0 1-1.5.5zm6.8 3.2h1.3V127h2.5v-1h-6.3v1h2.5v6.4zm22.3 0h1.3V126h-1.3v7.4zm12.8 0V126h-1.1l-2.9 5-3-5h-1.1v7.4h1.2v-5l2.5 4.1h.6l2.5-4.2v5.1h1.3zm6.6-7.4h-3v7.4h1.3v-2.2h1.8c.8 0 1.6-.2 2.3-.7 1.1-1 1.1-2.6.2-3.7l-.2-.2c-.8-.4-1.6-.6-2.4-.6zm-.1 4.2h-1.7V127h1.7c.5 0 1 .1 1.5.4.6.6.7 1.6.1 2.2l-.1.1a3 3 0 0 1-1.5.5zm6.9 2.1v-2.2h3.7v-1h-3.7V127h4.1v-1h-5.4v7.4h5.5v-1.1h-4.2zm9.7 1.2c1.1.1 2.2-.4 2.9-1.2l-.8-.8c-.5.6-1.3.9-2.1.9-.5 0-1-.1-1.4-.4a2.8 2.8 0 0 1-1-3.8c.2-.4.6-.7 1-1 .4-.2.9-.4 1.4-.3.8 0 1.5.3 2.1.9l.8-.8a3.8 3.8 0 0 0-2.9-1.2c-.7 0-1.4.2-2 .5a3.8 3.8 0 0 0-1.5 5.1c.3.7.9 1.2 1.5 1.5.6.4 1.3.6 2 .6zm10.6-.1h1.3L125 126h-1.2l-3.4 7.4h1.2l.8-1.8h4l.7 1.8zm-4.3-2.8l1.5-3.5 1.5 3.5h-3zm12.6-1c.3-.1.6-.4.7-.7.2-.3.3-.6.3-1 0-.6-.3-1.1-.7-1.4-.6-.4-1.3-.6-2-.5h-3.4v7.4h3.6c.8 0 1.5-.1 2.2-.5.5-.3.8-.9.7-1.5a2 2 0 0 0-.4-1.2c-.2-.3-.5-.6-1-.6zm-1.8-2.6l1.2.3c.5.3.6 1 .2 1.4l-.2.2-1.2.3h-2V127h2zm.2 5.4h-2.3v-2.3h2.3c1.1 0 1.7.4 1.7 1.1.1.8-.5 1.2-1.7 1.2zm5.1 1h1.3V126h-1.3v7.4zm4.7 0h5.2v-1.1h-4V126h-1.3v7.4h.1z" clip-rule="evenodd" opacity=".5"/><path d="M100 122H0v-1h150v1h-50z"/><linearGradient id="a" x1="555" x2="555" y1="-409" y2="-305" gradientTransform="matrix(1 0 0 -1 -487 -305)" gradientUnits="userSpaceOnUse"><stop offset="0" stop-color="#2b827e"/><stop offset="1" stop-color="#56b06e"/></linearGradient><path fill="url(#a)" fill-rule="evenodd" d="M58.4 87.1L18.5 18.2 8 0l120 .2L68.2 104l-9.8-16.9zm-36-68.3L59 82.1 95.4 19l-73-.2z" clip-rule="evenodd"/></svg>