<svg xmlns="http://www.w3.org/2000/svg" id="logo" viewBox="0 0 150 133.5"><defs><linearGradient id="linear-gradient" x1="555" x2="555" y1="543" y2="439" gradientUnits="userSpaceOnUse"><stop offset="0" stop-color="#2b827e"/><stop offset="1" stop-color="#56b06e"/></linearGradient></defs><path id="title" d="M494.529 557.477h5.346v-17.04h7.392v-3.96h-20.13v3.96h7.392v17.04zm36.05 0l-5.181-6.75a7.738 7.738 0 0 0 3.515-2.6 6.656 6.656 0 0 0 1.237-4.035 6.786 6.786 0 0 0-1.221-4.05 7.787 7.787 0 0 0-3.481-2.64 13.957 13.957 0 0 0-5.33-.93h-10v21h5.346v-5.85h4.917l4.455 5.85h5.742zm-5.841-13.38a3.2 3.2 0 0 1-1.254 2.7 5.948 5.948 0 0 1-3.663.96h-4.356v-7.32h4.356a6.019 6.019 0 0 1 3.663.945 3.194 3.194 0 0 1 1.254 2.715zm9.631 13.38h5.346v-21h-5.346v21zm27.771-21l-7.128 15-7.029-15h-5.775l9.966 21h5.28l10-21h-5.314zm13.042 17.1v-4.86h10.725v-3.78h-10.725v-4.56h12.144v-3.9h-17.457v21h17.886v-3.9h-12.573zm32.718-17.1v12.75l-11.484-12.75h-4.422v21h5.28v-12.75l11.517 12.75h4.389v-21h-5.28zm15.5 21h5.346v-17.04h7.392v-3.96h-20.13v3.96h7.392v17.04z" class="cls-1" transform="translate(-487 -439)"/><path id="slogan" fill="#414141" fill-rule="evenodd" d="M493.9 572.487a3.644 3.644 0 0 0 2.912-1.17l-.806-.819a2.73 2.73 0 0 1-2.067.9 2.875 2.875 0 0 1-1.423-.351 2.553 2.553 0 0 1-.988-.968 2.881 2.881 0 0 1 0-2.782 2.5 2.5 0 0 1 .988-.962 2.915 2.915 0 0 1 1.423-.345 2.722 2.722 0 0 1 2.067.884l.806-.819a3.642 3.642 0 0 0-2.912-1.155 4.247 4.247 0 0 0-2.047.494 3.742 3.742 0 0 0 0 6.6 4.236 4.236 0 0 0 2.047.494zm8.463 0a4.266 4.266 0 0 0 2.061-.494 3.744 3.744 0 0 0 0-6.6 4.532 4.532 0 0 0-4.115 0 3.736 3.736 0 0 0 0 6.6 4.277 4.277 0 0 0 2.054.494zm0-1.092a2.814 2.814 0 0 1-1.4-.351 2.575 2.575 0 0 1-.981-.962 2.881 2.881 0 0 1 0-2.782 2.582 2.582 0 0 1 .981-.962 2.983 2.983 0 0 1 2.808 0 2.592 2.592 0 0 1 .982.962 2.888 2.888 0 0 1 0 2.782 2.585 2.585 0 0 1-.982.962 2.814 2.814 0 0 1-1.4.351zm11.622-6.4v5.239L509.723 565h-1.04v7.384h1.261v-5.214l4.264 5.213h1.04V565h-1.261zm9.737 1.04V565h-5.4v7.384h1.261v-2.9h3.679v-1.04h-3.672v-2.4h4.134zm5.473 6.448a4.266 4.266 0 0 0 2.061-.494 3.744 3.744 0 0 0 0-6.6 4.532 4.532 0 0 0-4.115 0 3.736 3.736 0 0 0 0 6.6 4.277 4.277 0 0 0 2.054.494zm0-1.092a2.814 2.814 0 0 1-1.4-.351 2.575 2.575 0 0 1-.981-.962 2.881 2.881 0 0 1 0-2.782 2.582 2.582 0 0 1 .981-.962 2.983 2.983 0 0 1 2.808 0 2.592 2.592 0 0 1 .982.962 2.888 2.888 0 0 1 0 2.782 2.585 2.585 0 0 1-.982.962 2.814 2.814 0 0 1-1.4.351zm12.623.988l-1.755-2.444a2.534 2.534 0 0 0 1.2-.9 2.438 2.438 0 0 0 .422-1.443 2.33 2.33 0 0 0-.845-1.911 3.559 3.559 0 0 0-2.314-.689h-3.016v7.384h1.261v-2.2h1.755a2.98 2.98 0 0 0 .338-.013l1.586 2.21h1.365zm-3.367-3.224h-1.677v-3.12h1.677a2.294 2.294 0 0 1 1.463.4 1.589 1.589 0 0 1 0 2.314 2.288 2.288 0 0 1-1.463.4zm6.89 3.224h1.259v-6.344h2.522V565h-6.3v1.04h2.522v6.344zm16.042-.65l-.975-.936a5.307 5.307 0 0 0 .7-1.716l-.975-.273a4.454 4.454 0 0 1-.468 1.274l-1.729-1.651a3.816 3.816 0 0 0 1.183-.9 1.6 1.6 0 0 0 .364-1.027 1.423 1.423 0 0 0-.533-1.163 2.145 2.145 0 0 0-1.4-.436 2.305 2.305 0 0 0-1.521.475 1.536 1.536 0 0 0-.572 1.241 1.744 1.744 0 0 0 .189.793 3.694 3.694 0 0 0 .63.845 4.116 4.116 0 0 0-1.313 1.021 1.874 1.874 0 0 0-.4 1.163 1.711 1.711 0 0 0 .351 1.053 2.279 2.279 0 0 0 .975.728 3.591 3.591 0 0 0 1.391.26 3.547 3.547 0 0 0 2.457-.91l.975.936zm-3.822-5.941a1 1 0 0 1 .67.208.689.689 0 0 1 .24.546.82.82 0 0 1-.273.585 4.246 4.246 0 0 1-.949.637 4.07 4.07 0 0 1-.559-.65.958.958 0 0 1-.143-.507.739.739 0 0 1 .273-.585 1.1 1.1 0 0 1 .741-.234zm-.221 5.733a1.986 1.986 0 0 1-1.183-.318.967.967 0 0 1-.442-.813 1.119 1.119 0 0 1 .28-.754 3.743 3.743 0 0 1 .968-.715l2.054 1.976a2.439 2.439 0 0 1-1.677.624zm10.3.858h1.26V565h-1.261v7.384zm12.766 0l-.015-7.379H579.3l-2.938 4.966-2.991-4.966h-1.079v7.384h1.208v-5l2.548 4.121h.585l2.548-4.238.013 5.122h1.206zm6.55-7.379h-3.016v7.384h1.26v-2.171h1.755a3.553 3.553 0 0 0 2.314-.689 2.6 2.6 0 0 0 0-3.835 3.559 3.559 0 0 0-2.314-.689zm-.078 4.16H585.2v-3.12h1.677a2.294 2.294 0 0 1 1.463.4 1.589 1.589 0 0 1 0 2.314 2.288 2.288 0 0 1-1.463.4zm6.968 2.171v-2.184h3.679v-1.027h-3.679v-2.08h4.134V565h-5.395v7.384h5.538v-1.054h-4.277zm9.66 1.157a3.645 3.645 0 0 0 2.912-1.17l-.806-.819a2.733 2.733 0 0 1-2.067.9 2.876 2.876 0 0 1-1.424-.351 2.56 2.56 0 0 1-.988-.968 2.888 2.888 0 0 1 0-2.782 2.5 2.5 0 0 1 .988-.962 2.916 2.916 0 0 1 1.424-.345 2.725 2.725 0 0 1 2.067.884l.806-.819a3.643 3.643 0 0 0-2.912-1.157 4.251 4.251 0 0 0-2.048.494 3.743 3.743 0 0 0 0 6.6 4.24 4.24 0 0 0 2.048.494zm10.582-.1h1.274L611.969 565h-1.248l-3.38 7.384h1.235l.78-1.755h3.965zm-4.29-2.756l1.547-3.484 1.534 3.484H609.8zm12.649-1.079a1.77 1.77 0 0 0 .728-.65 1.826 1.826 0 0 0 .26-.988 1.631 1.631 0 0 0-.715-1.4 3.434 3.434 0 0 0-2.028-.514h-3.432v7.384h3.64a3.8 3.8 0 0 0 2.177-.52 1.7 1.7 0 0 0 .748-1.482 1.9 1.9 0 0 0-.358-1.183 1.854 1.854 0 0 0-1.02-.65zm-1.885-2.587a2.136 2.136 0 0 1 1.2.28 1.015 1.015 0 0 1-.007 1.644 2.1 2.1 0 0 1-1.189.286h-2.041v-2.21h2.041zm.273 5.46h-2.314v-2.288h2.314q1.716 0 1.716 1.144t-1.716 1.144zm5.07.962h1.261V565h-1.261v7.384zm4.654 0h5.226v-1.058h-3.965V565h-1.261v7.384z" opacity=".5" transform="translate(-487 -439)"/><path id="line" d="M587 561H487v-1h150v1h-50z" class="cls-1" transform="translate(-487 -439)"/><path id="brand" fill="url(#linear-gradient)" fill-rule="evenodd" d="M545.411 526.1h-.009l-39.877-68.917.009-.006-10.526-18.192L615 439.2 555.185 543zm-36.032-68.259l36.631 63.308 36.409-63.181z" transform="translate(-487 -439)"/></svg>