<?xml version="1.0" standalone="no"?>
<!DOCTYPE svg PUBLIC "-//W3C//DTD SVG 20010904//EN"
 "http://www.w3.org/TR/2001/REC-SVG-20010904/DTD/svg10.dtd">
<svg version="1.0" xmlns="http://www.w3.org/2000/svg"
 width="700.000000pt" height="700.000000pt" viewBox="0 0 700.000000 700.000000"
 preserveAspectRatio="xMidYMid meet">
<metadata>
Created by potrace 1.11, written by Peter Selinger 2001-2013
</metadata>
<g transform="translate(0.000000,700.000000) scale(0.100000,-0.100000)"
fill="#000000" stroke="none">
<path d="M3278 6995 c-1 -1 -41 -5 -88 -9 -87 -7 -105 -9 -225 -27 -116 -18
-123 -19 -192 -35 -172 -39 -236 -56 -348 -93 -439 -143 -831 -361 -1185 -659
-386 -325 -731 -780 -925 -1222 -26 -58 -51 -114 -56 -125 -47 -103 -149 -427
-175 -560 -2 -11 -13 -65 -24 -120 -24 -124 -30 -163 -47 -345 -15 -162 -8
-594 12 -710 2 -14 6 -47 9 -75 12 -105 35 -222 72 -370 26 -104 82 -289 94
-315 5 -8 25 -60 45 -115 62 -165 249 -531 312 -610 4 -6 34 -49 65 -95 171
-256 432 -534 708 -755 92 -74 370 -265 386 -265 4 0 15 -6 23 -14 30 -25 248
-135 388 -195 280 -119 620 -214 883 -246 25 -3 56 -7 69 -10 135 -26 700 -26
839 0 16 3 104 15 147 20 249 32 750 192 985 315 180 94 338 191 524 320 144
100 417 351 548 504 34 39 64 73 68 76 32 25 235 312 313 442 181 301 348 718
413 1033 16 75 54 300 60 350 4 33 9 76 11 95 8 70 10 547 2 610 -4 36 -10 93
-14 127 -3 34 -8 72 -10 84 -3 13 -7 41 -10 64 -19 130 -78 375 -130 530 -244
734 -727 1373 -1365 1806 -363 245 -818 439 -1235 524 -44 9 -89 19 -100 21
-11 2 -38 6 -60 9 -22 3 -51 7 -65 10 -13 2 -54 7 -90 11 -36 3 -78 8 -95 11
-33 5 -531 13 -537 8z m387 -130 c217 -9 319 -22 561 -71 74 -15 266 -69 364
-103 1033 -357 1824 -1178 2139 -2221 39 -128 92 -366 107 -475 3 -27 8 -52 9
-55 10 -17 20 -239 20 -450 0 -215 -7 -352 -21 -424 -2 -12 -7 -41 -10 -66 -3
-25 -14 -88 -24 -140 -185 -948 -758 -1763 -1583 -2255 -316 -188 -699 -339
-1012 -400 -176 -35 -226 -43 -390 -62 -127 -16 -725 -6 -755 12 -3 1 -27 6
-55 9 -44 6 -152 24 -180 30 -5 2 -28 6 -50 11 -82 16 -234 57 -345 94 -511
170 -968 456 -1347 842 -119 122 -147 154 -242 274 -247 315 -427 649 -551
1025 -43 127 -58 184 -100 365 -13 57 -29 142 -36 200 -3 28 -8 59 -10 69 -12
65 -19 222 -19 441 0 242 3 299 29 485 30 215 111 516 199 740 53 136 195 417
277 548 366 585 911 1048 1555 1322 226 96 587 198 801 225 21 2 57 7 79 10
93 12 127 15 265 21 80 4 146 8 148 9 2 2 11 1 20 -1 9 -1 80 -6 157 -9z"/>
<path d="M1040 5327 c0 -2 46 -91 103 -198 57 -107 132 -248 167 -314 35 -66
80 -151 100 -190 21 -38 62 -117 92 -175 119 -226 162 -307 188 -355 15 -27
60 -113 100 -190 41 -77 93 -175 117 -219 24 -43 43 -80 43 -83 0 -2 31 -61
69 -131 64 -120 117 -219 234 -442 27 -52 66 -126 87 -165 71 -133 118 -220
170 -320 161 -306 197 -375 221 -420 15 -27 45 -84 66 -125 37 -71 101 -192
183 -345 74 -139 197 -371 275 -520 32 -60 70 -132 85 -160 15 -27 53 -99 85
-160 72 -138 74 -142 89 -113 63 121 164 313 186 353 15 28 58 109 95 180 37
72 80 153 95 180 15 28 62 118 105 200 43 83 90 173 105 200 15 28 56 104 90
170 35 66 75 143 90 170 15 28 58 109 95 180 37 72 87 166 110 210 23 44 68
130 100 190 169 322 252 478 291 553 19 34 66 124 105 200 39 75 79 151 89
167 10 17 55 102 100 190 45 88 95 183 110 210 15 28 54 102 88 165 57 110
113 217 210 400 24 47 69 132 100 190 30 58 74 141 97 185 143 271 166 317
162 321 -5 5 -4897 16 -4897 11z m3568 -851 c2 -2 -28 -62 -66 -132 -38 -71
-72 -136 -75 -144 -4 -8 -26 -51 -50 -95 -24 -44 -76 -143 -116 -220 -40 -77
-86 -162 -101 -190 -15 -27 -60 -113 -100 -190 -40 -77 -87 -167 -105 -200
-18 -33 -58 -109 -90 -170 -32 -60 -78 -148 -103 -195 -24 -47 -68 -130 -97
-185 -29 -55 -70 -134 -92 -175 -22 -41 -118 -223 -213 -405 -258 -492 -268
-510 -276 -508 -7 1 -25 34 -128 228 -33 61 -76 142 -96 180 -20 39 -61 115
-90 170 -29 55 -72 136 -95 180 -23 44 -68 130 -100 190 -32 61 -75 142 -95
180 -21 39 -79 149 -130 245 -51 96 -113 213 -138 260 -88 166 -130 247 -197
375 -37 72 -75 144 -85 160 -10 17 -46 84 -80 150 -35 66 -80 152 -100 190
-104 195 -160 303 -160 307 0 5 2972 -1 2978 -6z"/>
</g>
</svg>
