<svg xmlns="http://www.w3.org/2000/svg">
  <symbol id="TriventLogoWhite" viewBox="0 0 230 52" fill="#ffffff"><path d="M87 26.5h5.3v-17h7.4v-4H79.6v4H87v17zm36.1 0l-5.2-6.8c1.4-.5 2.6-1.4 3.5-2.6.8-1.2 1.3-2.6 1.2-4 0-1.4-.4-2.9-1.2-4.1-.9-1.2-2.1-2.1-3.5-2.6-1.7-.7-3.5-1-5.3-.9h-10v21h5.3v-5.8h4.9l4.5 5.8h5.8zm-5.9-13.4c.1 1.1-.4 2.1-1.3 2.7-1.1.7-2.4 1-3.7 1H108V9.4h4.4c1.3-.1 2.6.2 3.7.9.7.7 1.2 1.7 1.1 2.8zm9.7 13.4h5.3v-21h-5.3v21zm27.7-21l-7.1 15-7-15h-5.8l10 21h5.3l10-21h-5.4zm13.1 17.1v-4.9h10.7v-3.8h-10.7V9.4h12.1V5.5h-17.5v21h17.9v-3.9h-12.5zm32.7-17.1v12.8L188.9 5.5h-4.4v21h5.3V13.7l11.5 12.7h4.4v-21l-5.3.1zm15.5 21h5.3v-17h7.4v-4h-20.1v4h7.4v17z"/><path fill-rule="evenodd" d="M86.7 46.5c1.2.1 2.3-.4 3.1-1.3l-.8-.8c-.6.6-1.4 1-2.2 1-.5 0-1.1-.1-1.5-.4-.4-.2-.8-.6-1.1-1-.5-.9-.5-2.1 0-3 .3-.4.6-.8 1.1-1 .5-.2 1-.4 1.5-.4.8 0 1.7.3 2.2 1l.9-.9c-.8-.9-2-1.3-3.1-1.2-.8 0-1.5.2-2.2.5-2 1-2.7 3.5-1.7 5.5.4.7 1 1.3 1.7 1.7.6.1 1.3.3 2.1.3zm8.8 0c.8 0 1.5-.2 2.2-.5 2-1 2.7-3.5 1.7-5.5-.4-.7-1-1.3-1.7-1.7-1.4-.7-3-.7-4.4 0-.6.3-1.2.8-1.6 1.5-.7 1.3-.7 2.9 0 4.2.4.6.9 1.1 1.6 1.5.7.3 1.4.5 2.2.5zm0-1.2c-.5 0-1-.1-1.5-.4-.4-.2-.8-.6-1.1-1-.5-.9-.5-2.1 0-3 .3-.4.6-.8 1.1-1 .9-.5 2.1-.5 3 0 .4.2.8.6 1.1 1 .5.9.5 2.1 0 3-.3.4-.6.8-1.1 1-.5.3-1 .4-1.5.4zm12.1-6.9V44l-4.6-5.6h-1.1v8h1.4v-5.6l4.6 5.6h1.1v-8h-1.4zm10.1 1.2v-1.1h-5.8v8h1.4v-3.1h4v-1.1h-4v-2.6l4.4-.1zm5.7 6.9c.8 0 1.5-.2 2.2-.5 2-1 2.7-3.5 1.7-5.5-.4-.7-1-1.3-1.7-1.7-1.4-.7-3-.7-4.4 0-2 1-2.7 3.5-1.7 5.4.4.7 1 1.3 1.7 1.7.6.4 1.4.6 2.2.6zm0-1.2c-.5 0-1-.1-1.5-.4-.4-.2-.8-.6-1.1-1-.5-.9-.5-2.1 0-3 .3-.4.6-.8 1.1-1 .9-.5 2.1-.5 3 0 .4.2.8.6 1.1 1 .5.9.5 2.1 0 3-.3.4-.6.8-1.1 1-.5.3-1 .4-1.5.4zm13.2 1.1l-1.9-2.6c.5-.2 1-.5 1.3-1 .3-.5.5-1 .5-1.6 0-.8-.3-1.6-.9-2.1-.7-.5-1.6-.8-2.5-.7h-3.2v8h1.4V44h2.3l1.7 2.4h1.3zm-3.7-3.5h-1.8v-3.4h1.8c.6 0 1.1.1 1.6.4.7.6.7 1.7.1 2.4 0 0 0 .1-.1.1-.4.4-1 .6-1.6.5zm7.2 3.5h1.4v-6.8h2.7v-1.1h-6.8v1.1h2.7v6.8zm16.1-.7l-1.1-1c.4-.6.6-1.2.8-1.8l-1.1-.3c-.1.5-.3.9-.5 1.4l-1.9-1.8c.5-.2.9-.6 1.3-1 .3-.3.4-.7.4-1.1 0-.5-.2-1-.6-1.3-.4-.3-1-.5-1.5-.5-.6 0-1.2.2-1.6.5-.4.3-.6.8-.6 1.3 0 .3.1.6.2.9.2.3.4.6.7.9-.5.3-1 .6-1.4 1.1-.3.4-.4.8-.4 1.3 0 .4.1.8.4 1.1.3.4.6.6 1.1.8.5.2 1 .3 1.5.3 1 0 1.9-.3 2.6-1l1.1 1 .6-.8zm-4.2-6.4c.3 0 .5.1.7.2.2.1.3.4.3.6 0 .2-.1.5-.3.6-.3.3-.7.5-1 .7-.2-.2-.4-.4-.6-.7-.1-.2-.2-.4-.2-.5 0-.2.1-.5.3-.6.3-.2.6-.3.8-.3zm-.2 6.2c-.5 0-.9-.1-1.3-.3-.3-.2-.5-.5-.5-.9 0-.3.1-.6.3-.8.3-.3.7-.6 1-.8l2.2 2.1c-.4.4-1 .7-1.7.7zm9.8.9h1.4v-8h-1.4v8zm12.8 0v-8h-1.2l-3.2 5.3-3.2-5.3h-1.2v8h1.3V41l2.7 4.4h.6l2.7-4.6v5.5l1.5.1zm5.5-8h-3.2v8h1.4V44h1.9c.9.1 1.8-.2 2.5-.7 1.1-1 1.2-2.8.2-4l-.2-.2c-.8-.5-1.7-.7-2.6-.7zm-.1 4.5H178v-3.4h1.8c.6 0 1.1.1 1.6.4.7.6.7 1.7.1 2.4 0 0 0 .1-.1.1-.5.4-1 .6-1.6.5zm7.2 2.4v-2.4h4v-1.1h-4v-2.2h4.5v-1.1h-5.8v8h6v-1.1l-4.7-.1zm10.2 1.2c1.2.1 2.3-.4 3.1-1.3l-.9-.9c-.6.6-1.4 1-2.2 1-.5 0-1.1-.1-1.5-.4-.4-.2-.8-.6-1.1-1-.5-.9-.5-2.1 0-3 .3-.4.6-.8 1.1-1 .5-.3 1-.4 1.5-.4.8 0 1.7.3 2.2 1l.9-.9c-.8-.9-2-1.3-3.1-1.2-.8 0-1.5.2-2.2.5-2 1-2.7 3.5-1.7 5.5.4.7 1 1.3 1.7 1.7.7.2 1.4.4 2.2.4zm11.1-.1h1.4l-3.7-8h-1.3l-3.6 8h1.3l.8-1.9h4.3l.8 1.9zm-4.7-3l1.7-3.8 1.7 3.8h-3.4zm13.4-1.1c.3-.2.6-.4.8-.7.2-.3.3-.7.3-1.1 0-.6-.3-1.2-.8-1.5-.7-.4-1.4-.6-2.2-.6h-3.7v8h3.9c.8.1 1.6-.1 2.3-.6.5-.4.8-1 .8-1.6 0-.5-.1-.9-.4-1.3-.2-.3-.6-.5-1-.6zm-2.1-2.8c.4 0 .9.1 1.3.3.5.4.6 1 .2 1.5l-.2.2c-.4.2-.8.3-1.3.3h-2.2v-2.4l2.2.1zm.3 5.9h-2.5v-2.5h2.5c1.2 0 1.8.4 1.8 1.2s-.5 1.3-1.8 1.3zm5.2 1h1.4v-8h-1.4v8zm4 0h5.6v-1.1h-4.3v-6.8h-1.4l.1 7.9z" clip-rule="evenodd" opacity=".5"/><path fill-rule="evenodd" d="M179.4 31h-100v1h150v-1z" clip-rule="evenodd" opacity=".2"/><path d="M28.6 43.6L6 9.1 0 0l68 .1L34.1 52l-5.5-8.4zM8.1 9.4l20.8 31.7L49.5 9.5 8.1 9.4z"/></symbol>
  <symbol id="prev" viewBox="0 0 11 28" fill="currentColor"><path d="M9.797 8.5c0 0.125-0.063 0.266-0.156 0.359l-6.141 6.141 6.141 6.141c0.094 0.094 0.156 0.234 0.156 0.359s-0.063 0.266-0.156 0.359l-0.781 0.781c-0.094 0.094-0.234 0.156-0.359 0.156s-0.266-0.063-0.359-0.156l-7.281-7.281c-0.094-0.094-0.156-0.234-0.156-0.359s0.063-0.266 0.156-0.359l7.281-7.281c0.094-0.094 0.234-0.156 0.359-0.156s0.266 0.063 0.359 0.156l0.781 0.781c0.094 0.094 0.156 0.219 0.156 0.359z"></path></symbol>
  <symbol id="next" viewBox="0 0 9 28" fill="currentColor"><path d="M9.297 15c0 0.125-0.063 0.266-0.156 0.359l-7.281 7.281c-0.094 0.094-0.234 0.156-0.359 0.156s-0.266-0.063-0.359-0.156l-0.781-0.781c-0.094-0.094-0.156-0.219-0.156-0.359 0-0.125 0.063-0.266 0.156-0.359l6.141-6.141-6.141-6.141c-0.094-0.094-0.156-0.234-0.156-0.359s0.063-0.266 0.156-0.359l0.781-0.781c0.094-0.094 0.234-0.156 0.359-0.156s0.266 0.063 0.359 0.156l7.281 7.281c0.094 0.094 0.156 0.234 0.156 0.359z"></path></symbol>
  <symbol id="caret" viewBox="0 0 16 28" fill="currentColor"><path d="M16 11c0 0.266-0.109 0.516-0.297 0.703l-7 7c-0.187 0.187-0.438 0.297-0.703 0.297s-0.516-0.109-0.703-0.297l-7-7c-0.187-0.187-0.297-0.438-0.297-0.703 0-0.547 0.453-1 1-1h14c0.547 0 1 0.453 1 1z"></path></symbol>
  <symbol id="icon-phone" viewBox="0 0 22 28" fill="currentColor"><path d="M22 19.375c0 0.562-0.25 1.656-0.484 2.172-0.328 0.766-1.203 1.266-1.906 1.656-0.922 0.5-1.859 0.797-2.906 0.797-1.453 0-2.766-0.594-4.094-1.078-0.953-0.344-1.875-0.766-2.734-1.297-2.656-1.641-5.859-4.844-7.5-7.5-0.531-0.859-0.953-1.781-1.297-2.734-0.484-1.328-1.078-2.641-1.078-4.094 0-1.047 0.297-1.984 0.797-2.906 0.391-0.703 0.891-1.578 1.656-1.906 0.516-0.234 1.609-0.484 2.172-0.484 0.109 0 0.219 0 0.328 0.047 0.328 0.109 0.672 0.875 0.828 1.188 0.5 0.891 0.984 1.797 1.5 2.672 0.25 0.406 0.719 0.906 0.719 1.391 0 0.953-2.828 2.344-2.828 3.187 0 0.422 0.391 0.969 0.609 1.344 1.578 2.844 3.547 4.813 6.391 6.391 0.375 0.219 0.922 0.609 1.344 0.609 0.844 0 2.234-2.828 3.187-2.828 0.484 0 0.984 0.469 1.391 0.719 0.875 0.516 1.781 1 2.672 1.5 0.313 0.156 1.078 0.5 1.188 0.828 0.047 0.109 0.047 0.219 0.047 0.328z"></path></symbol>
  <symbol id="icon-envelope" viewBox="0 0 28 28" fill="currentColor"><path d="M26 23.5v-12c-0.328 0.375-0.688 0.719-1.078 1.031-2.234 1.719-4.484 3.469-6.656 5.281-1.172 0.984-2.625 2.188-4.25 2.188h-0.031c-1.625 0-3.078-1.203-4.25-2.188-2.172-1.813-4.422-3.563-6.656-5.281-0.391-0.313-0.75-0.656-1.078-1.031v12c0 0.266 0.234 0.5 0.5 0.5h23c0.266 0 0.5-0.234 0.5-0.5zM26 7.078c0-0.391 0.094-1.078-0.5-1.078h-23c-0.266 0-0.5 0.234-0.5 0.5 0 1.781 0.891 3.328 2.297 4.438 2.094 1.641 4.188 3.297 6.266 4.953 0.828 0.672 2.328 2.109 3.422 2.109h0.031c1.094 0 2.594-1.437 3.422-2.109 2.078-1.656 4.172-3.313 6.266-4.953 1.016-0.797 2.297-2.531 2.297-3.859zM28 6.5v17c0 1.375-1.125 2.5-2.5 2.5h-23c-1.375 0-2.5-1.125-2.5-2.5v-17c0-1.375 1.125-2.5 2.5-2.5h23c1.375 0 2.5 1.125 2.5 2.5z"></path></symbol>
  <symbol id="icon-telephone" viewBox="0 0 28 28" fill="currentColor"><path d="M4.5 6c1.375 0 2.5 1.125 2.5 2.5v17c0 1.375-1.125 2.5-2.5 2.5h-2c-1.375 0-2.5-1.125-2.5-2.5v-17c0-1.375 1.125-2.5 2.5-2.5h2zM26 8.547c1.188 0.688 2 1.984 2 3.453v12c0 2.203-1.797 4-4 4h-13.5c-1.375 0-2.5-1.125-2.5-2.5v-24c0-0.828 0.672-1.5 1.5-1.5h10.5c0.828 0 1.984 0.484 2.562 1.062l2.375 2.375c0.578 0.578 1.062 1.734 1.062 2.562v2.547zM14.5 24v-2c0-0.281-0.219-0.5-0.5-0.5h-2c-0.281 0-0.5 0.219-0.5 0.5v2c0 0.281 0.219 0.5 0.5 0.5h2c0.281 0 0.5-0.219 0.5-0.5zM14.5 20v-2c0-0.281-0.219-0.5-0.5-0.5h-2c-0.281 0-0.5 0.219-0.5 0.5v2c0 0.281 0.219 0.5 0.5 0.5h2c0.281 0 0.5-0.219 0.5-0.5zM14.5 16v-2c0-0.281-0.219-0.5-0.5-0.5h-2c-0.281 0-0.5 0.219-0.5 0.5v2c0 0.281 0.219 0.5 0.5 0.5h2c0.281 0 0.5-0.219 0.5-0.5zM18.5 24v-2c0-0.281-0.219-0.5-0.5-0.5h-2c-0.281 0-0.5 0.219-0.5 0.5v2c0 0.281 0.219 0.5 0.5 0.5h2c0.281 0 0.5-0.219 0.5-0.5zM18.5 20v-2c0-0.281-0.219-0.5-0.5-0.5h-2c-0.281 0-0.5 0.219-0.5 0.5v2c0 0.281 0.219 0.5 0.5 0.5h2c0.281 0 0.5-0.219 0.5-0.5zM18.5 16v-2c0-0.281-0.219-0.5-0.5-0.5h-2c-0.281 0-0.5 0.219-0.5 0.5v2c0 0.281 0.219 0.5 0.5 0.5h2c0.281 0 0.5-0.219 0.5-0.5zM22.5 24v-2c0-0.281-0.219-0.5-0.5-0.5h-2c-0.281 0-0.5 0.219-0.5 0.5v2c0 0.281 0.219 0.5 0.5 0.5h2c0.281 0 0.5-0.219 0.5-0.5zM22.5 20v-2c0-0.281-0.219-0.5-0.5-0.5h-2c-0.281 0-0.5 0.219-0.5 0.5v2c0 0.281 0.219 0.5 0.5 0.5h2c0.281 0 0.5-0.219 0.5-0.5zM22.5 16v-2c0-0.281-0.219-0.5-0.5-0.5h-2c-0.281 0-0.5 0.219-0.5 0.5v2c0 0.281 0.219 0.5 0.5 0.5h2c0.281 0 0.5-0.219 0.5-0.5zM24 10v-4h-2.5c-0.828 0-1.5-0.672-1.5-1.5v-2.5h-10v8h14z"></path></symbol>
  <symbol id="icon-fax" viewBox="0 0 26 28" fill="currentColor"><path d="M6 24h14v-4h-14v4zM6 14h14v-6h-2.5c-0.828 0-1.5-0.672-1.5-1.5v-2.5h-10v10zM24 15c0-0.547-0.453-1-1-1s-1 0.453-1 1 0.453 1 1 1 1-0.453 1-1zM26 15v6.5c0 0.266-0.234 0.5-0.5 0.5h-3.5v2.5c0 0.828-0.672 1.5-1.5 1.5h-15c-0.828 0-1.5-0.672-1.5-1.5v-2.5h-3.5c-0.266 0-0.5-0.234-0.5-0.5v-6.5c0-1.641 1.359-3 3-3h1v-8.5c0-0.828 0.672-1.5 1.5-1.5h10.5c0.828 0 1.969 0.469 2.562 1.062l2.375 2.375c0.594 0.594 1.062 1.734 1.062 2.562v4h1c1.641 0 3 1.359 3 3z"></path></symbol>
  <symbol id="icon-address" viewBox="0 0 16 28" fill="currentColor"><path d="M12 10c0-2.203-1.797-4-4-4s-4 1.797-4 4 1.797 4 4 4 4-1.797 4-4zM16 10c0 0.953-0.109 1.937-0.516 2.797l-5.688 12.094c-0.328 0.688-1.047 1.109-1.797 1.109s-1.469-0.422-1.781-1.109l-5.703-12.094c-0.406-0.859-0.516-1.844-0.516-2.797 0-4.422 3.578-8 8-8s8 3.578 8 8z"></path></symbol>
  <symbol id="icon-calculator" viewBox="0 0 26 28" fill="currentColor"><path d="M6 24c0-1.109-0.891-2-2-2s-2 0.891-2 2 0.891 2 2 2 2-0.891 2-2zM12 24c0-1.109-0.891-2-2-2s-2 0.891-2 2 0.891 2 2 2 2-0.891 2-2zM6 18c0-1.109-0.891-2-2-2s-2 0.891-2 2 0.891 2 2 2 2-0.891 2-2zM18 24c0-1.109-0.891-2-2-2s-2 0.891-2 2 0.891 2 2 2 2-0.891 2-2zM12 18c0-1.109-0.891-2-2-2s-2 0.891-2 2 0.891 2 2 2 2-0.891 2-2zM6 12c0-1.109-0.891-2-2-2s-2 0.891-2 2 0.891 2 2 2 2-0.891 2-2zM18 18c0-1.109-0.891-2-2-2s-2 0.891-2 2 0.891 2 2 2 2-0.891 2-2zM12 12c0-1.109-0.891-2-2-2s-2 0.891-2 2 0.891 2 2 2 2-0.891 2-2zM24 24v-6c0-1.094-0.906-2-2-2v0c-1.094 0-2 0.906-2 2v6c0 1.094 0.906 2 2 2v0c1.094 0 2-0.906 2-2zM18 12c0-1.109-0.891-2-2-2s-2 0.891-2 2 0.891 2 2 2 2-0.891 2-2zM24 7v-4c0-0.547-0.453-1-1-1h-20c-0.547 0-1 0.453-1 1v4c0 0.547 0.453 1 1 1h20c0.547 0 1-0.453 1-1zM24 12c0-1.109-0.891-2-2-2s-2 0.891-2 2 0.891 2 2 2 2-0.891 2-2zM26 2v24c0 1.094-0.906 2-2 2h-22c-1.094 0-2-0.906-2-2v-24c0-1.094 0.906-2 2-2h22c1.094 0 2 0.906 2 2z"></path></symbol>
  <symbol id="icon-cart" viewBox="0 0 48 48" fill="currentColor"><path d="M20.1 37.8c-2.3 0-4.2 1.9-4.2 4.2s1.9 4.2 4.2 4.2 4.2-1.9 4.2-4.2c0-2.3-1.8-4.2-4.2-4.2zm0 6.1c-1 0-1.9-.8-1.9-1.9 0-1 .8-1.9 1.9-1.9 1 0 1.9.8 1.9 1.9 0 1-.8 1.9-1.9 1.9zm14.8-6.1c-2.3 0-4.2 1.9-4.2 4.2s1.9 4.2 4.2 4.2c2.3 0 4.2-1.9 4.2-4.2.1-2.3-1.8-4.2-4.2-4.2zm0 6.1c-1 0-1.9-.8-1.9-1.9 0-1 .8-1.9 1.9-1.9 1 0 1.9.8 1.9 1.9 0 1-.8 1.9-1.9 1.9zM36 15.5H19.1c-.7 0-1.2.5-1.2 1.2s.5 1.2 1.2 1.2H36c.7 0 1.2-.5 1.2-1.2 0-.6-.6-1.2-1.2-1.2zm-.9 6.2H20c-.7 0-1.2.5-1.2 1.2s.5 1.2 1.2 1.2h15.1c.7 0 1.2-.5 1.2-1.2-.1-.7-.6-1.2-1.2-1.2zm12.4-11.4c-.4-.6-1.1-.9-1.8-.9H8.9l-.7-3.6c-.2-.7-.7-1.4-1.4-1.7L1.6 1.9C1 1.6.3 1.9 0 2.5c-.3.6 0 1.3.6 1.6l5.2 2.2L11.6 34c.2 1.1 1.2 1.9 2.3 1.9h28.2c.7 0 1.2-.5 1.2-1.2s-.5-1.2-1.2-1.2H13.9l-.7-3.4h29.1c1.1 0 2.1-.8 2.3-1.9l3.3-16c.2-.6 0-1.4-.4-1.9zm-5.2 17.5H12.7l-3.3-16h36.2l-3.3 16z"/></symbol>
  <symbol id="icon-cancel" viewBox="0 0 64 64" fill="currentColor"><path d="M28.941 31.786L.613 60.114a2.014 2.014 0 1 0 2.848 2.849l28.541-28.541 28.541 28.541c.394.394.909.59 1.424.59a2.014 2.014 0 0 0 1.424-3.439L35.064 31.786 63.41 3.438A2.014 2.014 0 1 0 60.562.589L32.003 29.15 3.441.59A2.015 2.015 0 0 0 .593 3.439l28.348 28.347z"/></symbol>
  <symbol id="icon-search" viewBox="0 0 64 64" fill="currentColor"><path d="M25.915 52.205c6.377 0 12.206-2.344 16.708-6.196L59.98 63.365a2.004 2.004 0 1 0 2.836-2.837L45.459 43.172c3.853-4.5 6.197-10.331 6.197-16.707C51.656 12.271 40.107.724 25.915.724 11.721.724.173 12.271.173 26.465c0 14.193 11.548 25.74 25.742 25.74zm0-47.47c11.98 0 21.729 9.747 21.729 21.729 0 11.98-9.749 21.729-21.729 21.729-11.981 0-21.73-9.748-21.73-21.729 0-11.982 9.749-21.729 21.73-21.729z"/></symbol>
  <symbol id="icon-readmore" viewBox="0 0 26 28" fill="currentColor"><path d="M22 15.453v4.047c0 2.484-2.016 4.5-4.5 4.5h-13c-2.484 0-4.5-2.016-4.5-4.5v-13c0-2.484 2.016-4.5 4.5-4.5h3.984c0.266 0 0.5 0.219 0.5 0.5 0 0.25-0.172 0.453-0.406 0.5-0.781 0.266-1.484 0.578-2.078 0.938-0.078 0.031-0.156 0.063-0.25 0.063h-1.75c-1.375 0-2.5 1.125-2.5 2.5v13c0 1.375 1.125 2.5 2.5 2.5h13c1.375 0 2.5-1.125 2.5-2.5v-3.344c0-0.187 0.109-0.359 0.281-0.453 0.313-0.141 0.594-0.344 0.844-0.578 0.141-0.141 0.359-0.203 0.547-0.125s0.328 0.25 0.328 0.453zM25.703 7.703l-6 6c-0.187 0.203-0.438 0.297-0.703 0.297-0.125 0-0.266-0.031-0.391-0.078-0.359-0.156-0.609-0.516-0.609-0.922v-3h-2.5c-3.437 0-5.625 0.656-6.844 2.047-1.266 1.453-1.641 3.797-1.156 7.391 0.031 0.219-0.109 0.438-0.313 0.531-0.063 0.016-0.125 0.031-0.187 0.031-0.156 0-0.313-0.078-0.406-0.203-0.109-0.156-2.594-3.672-2.594-6.797 0-4.188 1.313-9 11.5-9h2.5v-3c0-0.406 0.25-0.766 0.609-0.922 0.125-0.047 0.266-0.078 0.391-0.078 0.266 0 0.516 0.109 0.703 0.297l6 6c0.391 0.391 0.391 1.016 0 1.406z"></path></symbol>
  <symbol id="icon-fan" viewBox="0 0 512 512" fill="currentColor"><path d="M509.488 334.3c-7.016-32.737-28.446-60.276-61.968-79.638-28.157-16.269-60.293-22.885-94.692-19.755 19.907-28.243 30.25-59.393 30.25-91.916 0-77.31-52.965-124.992-127.067-124.992-73.972 0-127.067 47.526-127.067 124.991 0 32.523 10.343 63.672 30.25 91.916-34.399-3.129-66.534 3.486-94.69 19.754-67.197 38.812-81.554 108.66-44.653 172.593 36.416 63.116 103.745 86.882 171.734 47.609 28.15-16.261 49.937-40.787 64.426-72.139 14.488 31.351 36.275 55.878 64.426 72.139 67.139 38.783 134.793 16.414 171.732-47.606 17.766-30.782 23.755-62.926 17.319-92.956zM256.011 58c51.244 0 87.074 29.177 87.074 84.99 0 30.891-12.306 59.663-36.624 85.739-29.238-23.785-71.415-23.972-100.9 0-24.318-26.076-36.624-54.847-36.624-85.739C168.936 87.352 204.579 58 256.011 58zm-84.428 382.222c-48.356 27.932-91.503 11.39-117.095-32.966-25.504-44.187-18.49-89.939 30.018-117.957 28.718-16.593 60.454-18.555 92.51-11.135-6.032 38.029 15.827 74.143 50.473 87.434-10.401 34.114-29.153 59.17-55.906 74.624zm87.201-109.461c-23.114 1.664-42.766-16.879-42.766-39.924 0-21.245 16.544-38.648 37.511-39.946 22.826-1.413 42.475 16.692 42.475 39.946 0 20.904-16.28 38.479-37.22 39.924zm198.749 76.495l-.001.003c-25.5 44.197-68.596 60.978-117.093 32.963-26.753-15.455-45.506-40.511-55.905-74.625 34.943-13.41 56.454-49.719 50.473-87.434 34.716-8.037 65.769-4.315 92.511 11.137 48.357 27.931 55.612 73.609 30.015 117.956z"/></symbol>
  <symbol id="icon-cold" viewBox="0 0 512 512" fill="currentColor"><path d="M368.941 297.655L296.238 256l72.702-41.655c9.585-5.491 12.905-17.715 7.415-27.302-5.49-9.587-17.714-12.907-27.295-7.415L276 221.487v-83.514c0-11.049-8.954-20.005-20-20.005s-20 8.956-20 20.005v83.514l-73.06-41.859c-9.585-5.493-21.805-2.172-27.295 7.415-5.49 9.587-2.17 21.81 7.414 27.302L215.762 256l-72.702 41.655c-9.585 5.492-12.904 17.715-7.414 27.302 5.49 9.586 17.709 12.907 27.295 7.415L236 290.513v83.514c0 11.049 8.954 20.005 20 20.005s20-8.956 20-20.005v-83.514l73.06 41.859c9.583 5.492 21.805 2.172 27.295-7.415 5.49-9.587 2.171-21.81-7.414-27.302z"/><path d="M438.717 87.855L310.618 14.474c-33.688-19.298-75.546-19.299-109.236 0l-128.1 73.381C39.183 107.389 18 143.941 18 183.246v145.508c0 39.305 21.183 75.857 55.283 95.391l128.1 73.381c33.69 19.299 75.545 19.299 109.236 0l128.099-73.381C472.816 404.611 494 368.06 494 328.754V183.246c0-39.306-21.184-75.858-55.283-95.391zM454 328.754c0 25-13.474 48.248-35.162 60.672l-128.099 73.381c-21.427 12.275-48.05 12.276-69.478 0l-128.1-73.381C71.473 377.002 58 353.753 58 328.754V183.246c0-25 13.473-48.248 35.162-60.672l128.1-73.381c21.426-12.274 48.05-12.276 69.478 0l128.099 73.381C440.526 134.998 454 158.246 454 183.246v145.508z"/></symbol>
  <symbol id="icon-warm" viewBox="0 0 512 512" fill="currentColor"><path d="M271.895 294.53V20c0-11.046-8.949-20-19.989-20h-99.945c-11.04 0-19.989 8.954-19.989 20v274.53C100.885 316.932 82 353.282 82 392c0 66.168 53.802 120 119.934 120s119.934-53.832 119.934-120c-.001-38.718-18.885-75.068-49.973-97.47zM171.95 40h59.967v40H171.95V40zm29.984 432c-44.088 0-79.956-35.888-79.956-80 0-28.472 15.324-55.028 39.993-69.306a20.004 20.004 0 0 0 9.98-17.313V120h59.967v185.382c0 7.14 3.804 13.737 9.98 17.313 24.669 14.277 39.993 40.834 39.993 69.306-.002 44.111-35.869 79.999-79.957 79.999zM424.143 124.05l-38.171-38.192c-7.769-7.774-20.451-7.83-28.276.008l-38.163 38.185c-7.806 7.81-7.807 20.473 0 28.284s20.463 7.81 28.269-.001l4.048-4.05V256c0 11.046 8.949 20 19.989 20 11.04 0 19.989-8.954 19.989-20V148.285l4.048 4.05c7.807 7.811 20.464 7.809 28.269 0 7.807-7.811 7.807-20.475-.002-28.285z"/></symbol>
  <symbol id="icon-sett" viewBox="0 0 512.001 512.001" fill="currentColor"><path d="M465.929 271.494c.762-10.345.763-20.63 0-30.988l38.675-35.883a20 20 0 0 0 3.706-24.681L448.151 76.019a19.997 19.997 0 0 0-23.166-9.104L374.45 82.391a210.8 210.8 0 0 0-26.993-15.581l-11.809-51.296A19.998 19.998 0 0 0 316.159 0H195.842a20 20 0 0 0-19.49 15.514L164.544 66.81a210.732 210.732 0 0 0-26.993 15.581L87.016 66.915a19.996 19.996 0 0 0-23.166 9.104L3.691 179.942a20 20 0 0 0 3.706 24.681l38.675 35.883a210.178 210.178 0 0 0 0 30.988L7.397 307.377a20 20 0 0 0-3.706 24.681l60.158 103.924a19.998 19.998 0 0 0 23.166 9.104l50.535-15.476a210.8 210.8 0 0 0 26.993 15.581l11.809 51.296a20 20 0 0 0 19.49 15.514h120.316a20 20 0 0 0 19.49-15.514l11.809-51.296a210.732 210.732 0 0 0 26.993-15.581l50.535 15.476a20 20 0 0 0 23.166-9.104l60.158-103.924a20 20 0 0 0-3.706-24.681l-38.674-35.883zm-40.718-36.463a171.17 171.17 0 0 1 0 41.938 19.997 19.997 0 0 0 6.246 17.106l34.234 31.763-44.194 76.346-44.792-13.717a19.985 19.985 0 0 0-17.905 3.16 170.572 170.572 0 0 1-36.389 21 20.003 20.003 0 0 0-11.713 13.939L300.24 472h-88.478l-10.459-45.434a19.999 19.999 0 0 0-11.713-13.939 170.596 170.596 0 0 1-36.389-21 19.989 19.989 0 0 0-17.905-3.16l-44.792 13.717-44.194-76.346 34.234-31.763a19.997 19.997 0 0 0 6.246-17.106 171.17 171.17 0 0 1 0-41.938 19.997 19.997 0 0 0-6.246-17.106L46.31 186.162l44.194-76.346 44.792 13.717a19.996 19.996 0 0 0 17.905-3.16 170.572 170.572 0 0 1 36.389-21 20.003 20.003 0 0 0 11.713-13.939L211.761 40h88.478l10.459 45.434a19.999 19.999 0 0 0 11.713 13.939 170.596 170.596 0 0 1 36.389 21 19.992 19.992 0 0 0 17.905 3.16l44.792-13.717 44.194 76.346-34.234 31.763a19.991 19.991 0 0 0-6.246 17.106z"/><path d="M256 176c-44.112 0-80 35.888-80 80s35.888 80 80 80 80-35.888 80-80-35.888-80-80-80zm0 120c-22.056 0-40-17.944-40-40s17.944-40 40-40 40 17.944 40 40-17.943 40-40 40z"/></symbol>
  <symbol id="icon-review" viewBox="0 0 60 60" fill="currentColor"><path d="M10 25.465h13a1 1 0 1 0 0-2H10a1 1 0 1 0 0 2zM36 29.465H10a1 1 0 1 0 0 2h26a1 1 0 1 0 0-2zM36 35.465H10a1 1 0 1 0 0 2h26a1 1 0 1 0 0-2z"/><path d="M54.072 2.535l-34.142-.07c-3.27 0-5.93 2.66-5.93 5.93v5.124l-8.07.017c-3.27 0-5.93 2.66-5.93 5.93v21.141c0 3.27 2.66 5.929 5.93 5.929H12v10a1 1 0 0 0 1.74.673l9.704-10.675 16.626-.068c3.27 0 5.93-2.66 5.93-5.929v-.113l5.26 5.786a1.002 1.002 0 0 0 1.74-.673v-10h1.07c3.27 0 5.93-2.66 5.93-5.929V8.465a5.937 5.937 0 0 0-5.928-5.93zM44 40.536a3.934 3.934 0 0 1-3.934 3.929l-17.07.07a1 1 0 0 0-.736.327L14 53.949v-8.414a1 1 0 0 0-1-1H5.93A3.934 3.934 0 0 1 2 40.606V19.465a3.935 3.935 0 0 1 3.932-3.93L15 15.516h.002l25.068-.052a3.934 3.934 0 0 1 3.93 3.93v21.142zm14-10.93a3.934 3.934 0 0 1-3.93 3.929H52a1 1 0 0 0-1 1v8.414l-5-5.5V19.395c0-3.27-2.66-5.93-5.932-5.93L16 13.514v-5.12a3.934 3.934 0 0 1 3.928-3.93l34.141.07h.002a3.934 3.934 0 0 1 3.93 3.93v21.142z"/></symbol>
  <symbol id="scope-1" viewBox="0 0 100 100" fill="currentColor"><path d="M88.3 10h-6.7c-.9 0-1.7.7-1.7 1.7V40h3.3V13.3h3.3v73.3h-3.3V50H80v36.7h-5V73.3c0-1.8-1.5-3.3-3.3-3.3H65V56.7c0-1.8-1.5-3.3-3.3-3.3h-20c-1.8 0-3.3 1.5-3.3 3.3v10h3.3v-10h20V70h-10c-.6 0-1.2.2-1.7.4-.5-.3-1.1-.4-1.7-.4h-20c-1.8 0-3.3 1.5-3.3 3.3v13.3h-5V50h-3.3v36.7h-3.3V13.3h3.3V40H20V11.7c0-.9-.7-1.7-1.7-1.7h-6.7c-.9 0-1.7.7-1.7 1.7v76.7c0 .9.7 1.7 1.7 1.7h76.7c.9 0 1.7-.7 1.7-1.7V11.7c0-1-.7-1.7-1.7-1.7zM71.7 73.3v13.3h-20V73.3h20zm-43.4 0h20v13.3h-20V73.3zm15 1.7v5c0 .9-.7 1.7-1.7 1.7H35c-.9 0-1.7-.7-1.7-1.7v-5h3.3v3.3H40V75h3.3zM50 58.3v3.3h3.3v-3.3h3.3v5c0 .9-.7 1.7-1.7 1.7h-6.7c-.9 0-1.7-.7-1.7-1.7v-5H50zM56.7 80v-5H60v3.3h3.3V75h3.3v5c0 .9-.7 1.7-1.7 1.7h-6.7c-.8 0-1.5-.8-1.5-1.7zM43.3 31.7v5c0 .9-.7 1.7-1.7 1.7H35c-.9 0-1.7-.7-1.7-1.7v-5h3.3V35H40v-3.3h3.3zM50 15v3.3h3.3V15h3.3v5c0 .9-.7 1.7-1.7 1.7h-6.7c-.9 0-1.7-.7-1.7-1.7v-5H50zm6.7 21.7v-5H60V35h3.3v-3.3h3.3v5c0 .9-.7 1.7-1.7 1.7h-6.7c-.8-.1-1.5-.8-1.5-1.7zm-40 6.6v3.3h66.7v-3.3H75V30c0-1.8-1.5-3.3-3.3-3.3h-20c-.6 0-1.2.2-1.7.4-.5-.3-1.1-.4-1.7-.4h-6.7V13.3h20v10H65v-10c0-1.8-1.5-3.3-3.3-3.3h-20c-1.8 0-3.3 1.5-3.3 3.3v13.3h-10c-1.8 0-3.3 1.5-3.3 3.3v13.3h-8.4zm55-13.3v13.3h-20V30h20zm-43.4 0h20v13.3h-20V30z"/></symbol>
  <symbol id="scope-2" viewBox="0 0 100 100" fill="currentColor"><path d="M89.5 36l-.8-.5v-.1h-.1L54.8 10.3c-.5-.4-1.1-.4-1.6 0L22.5 33l1.6 2.1L54 13l30.1 22.4H44.7V38h42.7v2.7H42v2.7h40v37.3h2.7V43.4h4c.8 0 1.3-.5 1.3-1.3v-4.9c0-.5-.1-.9-.5-1.2zM51.3 22h5.3v2.7h-5.3V22zm-4 5.4h13.3V30H47.3v-2.6zm8 18.6H58v2.7h-2.7V46zm5.4 0h2.7v2.7h-2.7V46zm5.3 0h2.7v2.7H66V46zm5.3 0H74v2.7h-2.7V46zm5.4 0h2.7v2.7h-2.7V46zm-28.4 1.8c-.1-.3-.5-.4-.9-.4H38V38c0-.8-.5-1.3-1.3-1.3H10v2.7h25.3v29.3H10v2.7h25.3v5.3H10v2.7h26.7c.8 0 1.3-.5 1.3-1.3V50h8.8l8.3 9.3H46V62h10.7v16h2.7V60.7c0-.4-.1-.7-.4-.9l-10.7-12zm-1 26.2c-4.4 0-8 3.6-8 8s3.6 8 8 8 8-3.6 8-8-3.6-8-8-8zm0 13.3c-2.9 0-5.3-2.4-5.3-5.3s2.4-5.3 5.3-5.3 5.3 2.4 5.3 5.3-2.3 5.3-5.3 5.3zM46 66h4v2.7h-4V66zm1.3 13.3c1.5 0 2.7 1.2 2.7 2.7s-1.2 2.7-2.7 2.7c-1.5 0-2.7-1.2-2.7-2.7s1.3-2.7 2.7-2.7zM16.7 56.7H30v2.7H16.7v-2.7zM22 62h8v2.7h-8V62zm56-6.7H60.7V58h16v22.7h2.7v-24c-.1-.8-.6-1.4-1.4-1.4zm-9.3 13.4h4v2.7h-4v-2.7z"/></symbol>
  <symbol id="scope-3" viewBox="0 0 100 100" fill="currentColor"><path d="M87.9 44.5L82 43.2c-.5-.1-.8-.4-1-.9-.8-3.1-2-6-3.6-8.8-.2-.4-.2-.9 0-1.3l3.2-5.1c.7-1.1.5-2.4-.4-3.3l-4.1-4.1c-.9-.9-2.3-1-3.3-.4l-5.1 3.3c-.4.3-.9.3-1.3 0-2.7-1.6-5.7-2.9-8.8-3.6-.5-.1-.8-.5-.9-1l-1.3-5.9c-.3-1.2-1.3-2.1-2.6-2.1h-5.9c-1.2 0-2.3.9-2.6 2.1L43.2 18c-.1.5-.4.8-.9 1-3.1.8-6 2-8.8 3.6-.4.2-.9.2-1.3 0l-5.1-3.3c-1-.7-2.4-.5-3.3.4l-4.2 4.2c-.9.9-1 2.3-.4 3.3l3.3 5.1c.3.4.3.9 0 1.3-1.6 2.7-2.9 5.7-3.6 8.8-.1.5-.5.8-1 .9L12 44.6c-1.2.3-2.1 1.3-2.1 2.6v5.9c0 1.2.9 2.3 2.1 2.6l5.9 1.3c.5.1.8.4 1 .9.8 3.1 2 6 3.6 8.8.2.4.2.9 0 1.3l-3.2 5.1c-.7 1.1-.5 2.4.4 3.3l4.1 4.1c.9.9 2.3 1 3.3.4l5.1-3.3c.4-.3.9-.3 1.3 0 2.7 1.6 5.7 2.9 8.8 3.6.5.1.8.5.9 1l1.3 5.9c.3 1.2 1.3 2.1 2.6 2.1H53c1.2 0 2.3-.9 2.6-2.1l1.3-5.9c.4-1.7 2.8-.5 9.4-4.5l7.4 7.4c2 2.1 5 3 7.8 2.2 2.8-.7 5-2.9 5.7-5.7.7-2.8-.1-5.8-2.3-7.8l-7.4-7.4c4-6.7 2.8-9 4.5-9.4l5.9-1.3c1.2-.3 2.1-1.3 2.1-2.6v-5.9c0-1.4-.9-2.5-2.1-2.7zm-3.3 34.8c0 2.2-1.3 4.1-3.3 4.9-2 .8-4.3.4-5.8-1.2-21.2-21.1-20.2-20.3-20.9-20.4h-.5c-4.4 1.4-9.2.5-12.7-2.5s-5.3-7.5-4.6-12.1l7.4 7.3c.3.3.8.5 1.2.4l7.7-1.7c.5-.1.9-.5 1-1l1.7-7.7c.1-.4 0-.9-.4-1.2l-7.3-7.3c4.6-.6 9.1 1.1 12.1 4.6 3 3.5 3.9 8.3 2.5 12.7-.4 1.1-.5.5 20.4 21.4 1 1 1.5 2.4 1.5 3.8zm-15-21l-4.2-4.2c1.5-5.7-.2-11.7-4.4-15.7S50.6 33 45.1 34.8c-.4.1-.8.5-.9 1-.1.5 0 .9.4 1.3l8.5 8.5-1.4 6.2-6.2 1.4-8.5-8.6c-.3-.3-.8-.5-1.3-.4-.5.1-.8.4-1 .9-1.7 5.6-.3 11.7 3.7 15.9 4 4.2 10.1 5.9 15.7 4.4l4.2 4.2c-9.4 4-20.3.7-26-7.7s-4.6-19.8 2.6-27 18.6-8.3 27-2.6 11.7 16.6 7.7 26zm11.8-4.1c-1.5.3-2.6 1.5-3 3-.6 2.5-1.6 4.9-2.8 7.1l-4-4c5.1-10.5 1.8-23.2-7.8-29.9S41.3 24.7 33.1 33s-9.4 21.3-2.7 30.8 19.4 12.9 29.9 7.8l4 4c-2.2 1.2-4.6 2.2-7.1 2.8-1.5.4-2.6 1.5-3 3l-1.3 5.9H47l-1.3-5.9c-.3-1.5-1.4-2.6-2.9-3-2.8-.7-5.5-1.8-8-3.3-1.3-.7-2.9-.7-4.1.1l-5.1 3.2-4.1-4.1 3.2-5.1c.8-1.2.8-2.8.1-4.1-1.5-2.5-2.6-5.2-3.3-8-.4-1.4-1.5-2.5-3-2.9l-5.9-1.3V47l5.9-1.3c1.5-.3 2.6-1.4 3-2.9.7-2.8 1.8-5.5 3.3-8 .7-1.3.7-2.9-.1-4.1l-3.3-5.1 4.1-4.2 5.1 3.3c1.2.8 2.8.8 4.1.1 2.5-1.5 5.2-2.6 8-3.3 1.4-.4 2.5-1.5 2.9-3l1.3-5.9h5.9l1.3 5.9c.3 1.5 1.4 2.6 2.9 3 2.8.7 5.5 1.8 8 3.3 1.3.7 2.9.7 4.1-.1l5.1-3.2 4.1 4.1-3.2 5.1c-.8 1.2-.8 2.8-.1 4.1 1.5 2.5 2.6 5.2 3.3 8 .4 1.4 1.5 2.5 3 2.9l5.9 1.3v5.9l-5.8 1.3zM51.3 19.3h-2.7c-.7 0-1.3.6-1.3 1.3s.6 1.3 1.3 1.3h2.7c.7 0 1.3-.6 1.3-1.3s-.5-1.3-1.3-1.3zm-2.6 61.4h2.7c.7 0 1.3-.6 1.3-1.3 0-.7-.6-1.3-1.3-1.3h-2.7c-.7 0-1.3.6-1.3 1.3-.1.7.5 1.3 1.3 1.3zM29.3 27.4l-1.9 1.9c-.5.5-.5 1.4 0 1.9s1.3.5 1.9 0l1.9-1.9c.5-.5.5-1.4 0-1.9-.6-.5-1.4-.5-1.9 0zm-8.6 19.9c-.7 0-1.3.6-1.3 1.3v2.7c0 .7.6 1.3 1.3 1.3.7 0 1.3-.6 1.3-1.3v-2.7c0-.7-.6-1.3-1.3-1.3zm58.6 0c-.7 0-1.3.6-1.3 1.3v2.7c0 .7.6 1.3 1.3 1.3.7 0 1.3-.6 1.3-1.3v-2.7c.1-.7-.5-1.3-1.3-1.3zm-50 25.3c.5.5 1.4.5 1.9 0s.5-1.3 0-1.9l-1.9-1.9c-.5-.5-1.4-.5-1.9 0s-.5 1.3 0 1.9l1.9 1.9zm41.4-45.2c-.5-.5-1.4-.5-1.9 0s-.5 1.3 0 1.9c2.1 2.1 2.1 2.3 2.8 2.3.5 0 1-.3 1.2-.8.2-.5.1-1.1-.3-1.5l-1.8-1.9zm8.6 55.9c2.2 0 4-1.8 4-4s-1.8-4-4-4-4 1.8-4 4 1.8 4 4 4zm0-5.3c.7 0 1.3.6 1.3 1.3 0 .7-.6 1.3-1.3 1.3-.7 0-1.3-.6-1.3-1.3 0-.7.6-1.3 1.3-1.3zm-19-19.6c-.5-.5-1.4-.5-1.9 0s-.5 1.3 0 1.9L73.1 75c.3.3.8.5 1.3.4.5-.1.8-.5 1-1 .1-.5 0-1-.4-1.3L60.3 58.4z"/></symbol>
  <symbol id="scope-4" viewBox="0 0 100 100" fill="currentColor"><path d="M59.1 38.1c1 0 1.8-.7 1.8-1.6s-.8-1.5-1.8-1.5-1.8.7-1.8 1.6.8 1.5 1.8 1.5zm-18.2 0c1 0 1.8-.7 1.8-1.6s-.8-1.5-1.8-1.5-1.8.7-1.8 1.6.8 1.5 1.8 1.5zm4.3 10.8c1.5.6 3.2.9 4.8.9 1.7 0 3.3-.3 4.8-.9.9-.4 1.3-1.3.9-2.1s-1.5-1.1-2.4-.8c-1 .4-2.1.6-3.2.6-1.2 0-2.3-.2-3.3-.6-.9-.4-2 0-2.4.7-.5.9-.2 1.8.8 2.2zM90 73.4c0-8.6-11.4-15.3-21.1-15.6l-5-3.8c6-3.8 9.7-9.9 9.7-16.4V27.2c0-9.5-9-17.2-20-17.2h-7.3c-11 0-19.9 7.7-19.9 17.2v10.3c0 6.5 3.6 12.6 9.6 16.4l-5 3.9c-9.7.3-21.1 7-21.1 15.6v15c0 .9.8 1.6 1.8 1.6h76.4c1 0 1.8-.7 1.8-1.6v-15zm-44 6.3h8l1.9 7.2H44l2-7.2zm8.2-3.1h-8.3l-1.4-3.7 5.5-2.4 5.6 2.4-1.4 3.7zM50 65.8l-6.3-8.7c2 .5 4.2.7 6.3.7 2.1 0 4.2-.2 6.3-.7L50 65.8zm2.6 2.3l8.7-12 4.7 3.6-6 11.6-7.4-3.2zm-6.2-55h7.3c9 0 16.4 6.3 16.4 14.1v1.3l-3.4-4.2c-.3-.4-.8-.6-1.3-.7-.5 0-1.1.1-1.4.5-3.7 3.2-8 4.7-13.8 4.7-5.9 0-10.2-1.4-13.8-4.7-.4-.3-.9-.5-1.5-.5-.5 0-1 .3-1.3.7l-3.2 4.1v-1.2c-.3-7.8 7-14.1 16-14.1zM30.1 37.5v-3.6l5-6.4c4 3 8.8 4.3 14.8 4.3s10.8-1.4 14.8-4.4L70 34v3.5c0 9.4-8.9 17.2-20 17.2s-19.9-7.8-19.9-17.2zm8.6 18.6l8.7 12-7.4 3.2-6-11.6 4.7-3.6zM13.6 73.4c0-6.4 9.1-12 17-12.5L37.4 74c.2.4.6.7 1 .8.5.1 1 .1 1.4-.1l1.3-.6 1.5 3.9-2.4 8.7H13.6V73.4zm72.8 13.5H59.6l-2.3-8.7 1.6-3.9 1.2.5c.4.2 1 .2 1.4.1.5-.1.8-.4 1-.8L69.3 61c7.9.5 17 6.1 17 12.5v13.4zm-12.8-7.2h-7.3c-1 0-1.8.7-1.8 1.6s.8 1.6 1.8 1.6h7.3c1 0 1.8-.7 1.8-1.6s-.8-1.6-1.8-1.6zm7.1 0c1 0 1.8.7 1.8 1.6s-.8 1.6-1.8 1.6-1.8-.7-1.8-1.6.8-1.6 1.8-1.6z"/></symbol>
  <symbol id="scope-5" viewBox="0 0 100 100" fill="currentColor"><path d="M50 20.7c-16.2 0-29.3 13.1-29.3 29.3S33.8 79.3 50 79.3 79.3 66.2 79.3 50c0-16.2-13.1-29.3-29.3-29.3zm0 56c-14.7 0-26.7-11.9-26.7-26.7s12-26.7 26.7-26.7 26.7 12 26.7 26.7c-.1 14.7-12 26.6-26.7 26.7zm38.3-32.3l-4.5-1.8c-.9-4-2.5-7.9-4.7-11.4l1.9-4.4c.4-1 .2-2.2-.6-2.9L76 19.5c-.8-.8-1.9-1-2.9-.6l-4.4 1.9c-3.5-2.2-7.3-3.8-11.4-4.7l-1.8-4.5c-.4-1-1.4-1.7-2.5-1.7h-6.2c-1.1 0-2.1.7-2.5 1.7l-1.8 4.5c-4 .9-7.9 2.5-11.4 4.7L26.8 19c-1-.4-2.2-.2-2.9.6L19.5 24c-.8.8-1 1.9-.6 2.9l1.9 4.4c-2.2 3.5-3.8 7.3-4.7 11.4l-4.4 1.8c-1 .4-1.7 1.4-1.7 2.5v6.2c0 1.1.7 2.1 1.7 2.5l4.5 1.8c.9 4 2.5 7.9 4.7 11.4L19 73.2c-.4 1-.2 2.2.6 2.9l4.4 4.4c.5.5 1.2.8 1.9.8.8 0 .7-.1 5.5-2.1 3.5 2.2 7.3 3.8 11.4 4.7l1.8 4.4c.4 1 1.4 1.7 2.5 1.7h6.2c1.1 0 2.1-.7 2.5-1.7l1.8-4.5c4-.9 7.9-2.5 11.4-4.7l4.4 1.9c1 .4 2.2.2 2.9-.6l4.4-4.4c.8-.8 1-1.9.6-2.9l-1.9-4.4c2.2-3.5 3.8-7.3 4.7-11.4l4.4-1.8c1-.4 1.7-1.4 1.7-2.5v-6.2c-.2-1-.9-2-1.9-2.4zM50 82c-17.7 0-32-14.3-32-32s14.3-32 32-32 32 14.3 32 32-14.3 32-32 32zm24.2-60.6l4.4 4.4-1.3 2.9c-1.8-2.3-3.8-4.3-6.1-6.1l3-1.2zm-27.3-8.7h6.2l1.2 2.9c-2.8-.4-5.7-.4-8.6 0l1.2-2.9zM21.4 25.8l4.4-4.4 2.9 1.2c-2.3 1.8-4.3 3.8-6.1 6.1l-1.2-2.9zm-8.7 27.3v-6.2l2.9-1.2c-.4 2.8-.4 5.7 0 8.6l-2.9-1.2zm13.1 25.5l-4.4-4.4 1.3-2.9c1.8 2.3 3.8 4.3 6.1 6.1l-3 1.2zm27.3 8.7h-6.2l-1.2-2.9c2.8.4 5.7.4 8.6 0l-1.2 2.9zm25.5-13.1l-4.4 4.4-2.9-1.3c2.3-1.8 4.3-3.8 6.1-6.1l1.2 3zm8.7-21.1l-2.9 1.2c.4-2.8.4-5.7 0-8.6l2.9 1.2v6.2zM50 30c.7 0 1.3-.6 1.3-1.3V26c0-.7-.6-1.3-1.3-1.3s-1.3.6-1.3 1.3v2.7c0 .7.6 1.3 1.3 1.3zm-12.5 1c.2.4.7.7 1.2.7s.9-.3 1.2-.7c.2-.4.2-.9 0-1.3l-.7-1.2c-.2-.4-.7-.7-1.2-.7s-.9.3-1.2.7c-.2.4-.2.9 0 1.3l.7 1.2zm25 38c-.2-.4-.7-.7-1.2-.7s-.9.3-1.2.7c-.2.4-.2.9 0 1.3l.7 1.2c.2.4.7.7 1.2.7s.9-.3 1.2-.7c.2-.4.2-.9 0-1.3l-.7-1.2zM31 37.5l-1.2-.7c-.6-.4-1.4-.1-1.8.5-.4.6-.2 1.4.5 1.8l1.2.7c.4.2.9.2 1.3 0s.7-.7.7-1.2c0-.4-.2-.9-.7-1.1zm40.5 23.3l-1.2-.7c-.4-.2-.9-.2-1.3 0s-.7.7-.7 1.2.3.9.7 1.2l1.2.7c.4.2.9.2 1.3 0s.7-.7.7-1.2c-.1-.5-.3-.9-.7-1.2zm-41.8-.6l-1.2.7c-.6.4-.8 1.2-.5 1.8.4.6 1.2.9 1.8.5l1.2-.7c.4-.2.7-.7.7-1.2s-.3-.9-.7-1.2c-.4-.2-.9-.2-1.3.1zM69.6 40c.5 0 .7-.2 1.8-.8.6-.4.8-1.2.5-1.8-.4-.6-1.2-.9-1.8-.5l-1.1.6c-.5.3-.8.9-.6 1.5.1.6.6 1 1.2 1zM39.3 68.5c-.6-.4-1.5-.1-1.8.5l-.7 1.2c-.2.4-.2.9 0 1.3s.7.7 1.2.7.9-.3 1.2-.7l.7-1.2c.3-.6.1-1.5-.6-1.8zm21.4-37c.6.4 1.5.1 1.8-.5l.7-1.2c.4-.6.1-1.4-.5-1.8-.6-.4-1.4-.2-1.8.5l-.7 1.2c-.4.6-.2 1.5.5 1.8zM50 70c-.7 0-1.3.6-1.3 1.3V74c0 .7.6 1.3 1.3 1.3s1.3-.6 1.3-1.3v-2.7c0-.7-.6-1.3-1.3-1.3zm24-21.3h-2.7c-.7 0-1.3.6-1.3 1.3s.6 1.3 1.3 1.3H74c.7 0 1.3-.6 1.3-1.3s-.6-1.3-1.3-1.3zM30 50c0-.7-.6-1.3-1.3-1.3H26c-.7 0-1.3.6-1.3 1.3s.6 1.3 1.3 1.3h2.7c.7 0 1.3-.6 1.3-1.3zm24.7 2.5c.8-1.4.8-3.1.2-4.6-.7-1.5-2-2.6-3.5-3V34c0-.7-.6-1.3-1.3-1.3s-1.3.6-1.3 1.3v10.9c-1.6.4-3 1.6-3.6 3.1-.6 1.5-.5 3.3.3 4.7l-5.7 5.7c-.5.5-.5 1.4 0 1.9s1.3.5 1.9 0l5.7-5.7c1.7 1.1 3.9 1 5.6-.1l10.8 9.9c.5.5 1.4.5 1.9-.1.5-.5.5-1.4-.1-1.9l-10.9-9.9zm-6.6-.6c-.9-.9-1-2.2-.4-3.2s1.8-1.6 3-1.2 2 1.4 2 2.6c0 1.1-.6 2-1.6 2.5-1.1.3-2.2 0-3-.7z"/></symbol>
  <symbol id="icon-facebook" viewBox="0 0 16 28" fill="currentColor"><path d="M14.984 0.187v4.125h-2.453c-1.922 0-2.281 0.922-2.281 2.25v2.953h4.578l-0.609 4.625h-3.969v11.859h-4.781v-11.859h-3.984v-4.625h3.984v-3.406c0-3.953 2.422-6.109 5.953-6.109 1.687 0 3.141 0.125 3.563 0.187z"></path></symbol>
  <symbol id="icon-twitter" viewBox="0 0 26 28" fill="currentColor"><path d="M25.312 6.375c-0.688 1-1.547 1.891-2.531 2.609 0.016 0.219 0.016 0.438 0.016 0.656 0 6.672-5.078 14.359-14.359 14.359-2.859 0-5.516-0.828-7.75-2.266 0.406 0.047 0.797 0.063 1.219 0.063 2.359 0 4.531-0.797 6.266-2.156-2.219-0.047-4.078-1.5-4.719-3.5 0.313 0.047 0.625 0.078 0.953 0.078 0.453 0 0.906-0.063 1.328-0.172-2.312-0.469-4.047-2.5-4.047-4.953v-0.063c0.672 0.375 1.453 0.609 2.281 0.641-1.359-0.906-2.25-2.453-2.25-4.203 0-0.938 0.25-1.797 0.688-2.547 2.484 3.062 6.219 5.063 10.406 5.281-0.078-0.375-0.125-0.766-0.125-1.156 0-2.781 2.25-5.047 5.047-5.047 1.453 0 2.766 0.609 3.687 1.594 1.141-0.219 2.234-0.641 3.203-1.219-0.375 1.172-1.172 2.156-2.219 2.781 1.016-0.109 2-0.391 2.906-0.781z"></path></symbol>
  <symbol id="icon-linkedin" viewBox="0 0 24 28" fill="currentColor"><path d="M5.453 9.766v15.484h-5.156v-15.484h5.156zM5.781 4.984c0.016 1.484-1.109 2.672-2.906 2.672v0h-0.031c-1.734 0-2.844-1.188-2.844-2.672 0-1.516 1.156-2.672 2.906-2.672 1.766 0 2.859 1.156 2.875 2.672zM24 16.375v8.875h-5.141v-8.281c0-2.078-0.75-3.5-2.609-3.5-1.422 0-2.266 0.953-2.641 1.875-0.125 0.344-0.172 0.797-0.172 1.266v8.641h-5.141c0.063-14.031 0-15.484 0-15.484h5.141v2.25h-0.031c0.672-1.062 1.891-2.609 4.672-2.609 3.391 0 5.922 2.219 5.922 6.969z"></path></symbol>
  <symbol id="icon-vk" viewBox="0 0 31 28" fill="currentColor"><path d="M29.953 8.125c0.234 0.641-0.5 2.141-2.344 4.594-3.031 4.031-3.359 3.656-0.859 5.984 2.406 2.234 2.906 3.313 2.984 3.453 0 0 1 1.75-1.109 1.766l-4 0.063c-0.859 0.172-2-0.609-2-0.609-1.5-1.031-2.906-3.703-4-3.359 0 0-1.125 0.359-1.094 2.766 0.016 0.516-0.234 0.797-0.234 0.797s-0.281 0.297-0.828 0.344h-1.797c-3.953 0.25-7.438-3.391-7.438-3.391s-3.813-3.938-7.156-11.797c-0.219-0.516 0.016-0.766 0.016-0.766s0.234-0.297 0.891-0.297l4.281-0.031c0.406 0.063 0.688 0.281 0.688 0.281s0.25 0.172 0.375 0.5c0.703 1.75 1.609 3.344 1.609 3.344 1.563 3.219 2.625 3.766 3.234 3.437 0 0 0.797-0.484 0.625-4.375-0.063-1.406-0.453-2.047-0.453-2.047-0.359-0.484-1.031-0.625-1.328-0.672-0.234-0.031 0.156-0.594 0.672-0.844 0.766-0.375 2.125-0.391 3.734-0.375 1.266 0.016 1.625 0.094 2.109 0.203 1.484 0.359 0.984 1.734 0.984 5.047 0 1.062-0.203 2.547 0.562 3.031 0.328 0.219 1.141 0.031 3.141-3.375 0 0 0.938-1.625 1.672-3.516 0.125-0.344 0.391-0.484 0.391-0.484s0.25-0.141 0.594-0.094l4.5-0.031c1.359-0.172 1.578 0.453 1.578 0.453z"></path></symbol>
  <symbol id="icon-bars" viewBox="0 0 24 28" fill="currentColor"><path d="M24 21v2c0 0.547-0.453 1-1 1h-22c-0.547 0-1-0.453-1-1v-2c0-0.547 0.453-1 1-1h22c0.547 0 1 0.453 1 1zM24 13v2c0 0.547-0.453 1-1 1h-22c-0.547 0-1-0.453-1-1v-2c0-0.547 0.453-1 1-1h22c0.547 0 1 0.453 1 1zM24 5v2c0 0.547-0.453 1-1 1h-22c-0.547 0-1-0.453-1-1v-2c0-0.547 0.453-1 1-1h22c0.547 0 1 0.453 1 1z"></path></symbol>
  <symbol id="icon-home" viewBox="0 0 26 28" fill="currentColor"><path d="M22 15.5v7.5c0 0.547-0.453 1-1 1h-6v-6h-4v6h-6c-0.547 0-1-0.453-1-1v-7.5c0-0.031 0.016-0.063 0.016-0.094l8.984-7.406 8.984 7.406c0.016 0.031 0.016 0.063 0.016 0.094zM25.484 14.422l-0.969 1.156c-0.078 0.094-0.203 0.156-0.328 0.172h-0.047c-0.125 0-0.234-0.031-0.328-0.109l-10.813-9.016-10.813 9.016c-0.109 0.078-0.234 0.125-0.375 0.109-0.125-0.016-0.25-0.078-0.328-0.172l-0.969-1.156c-0.172-0.203-0.141-0.531 0.063-0.703l11.234-9.359c0.656-0.547 1.719-0.547 2.375 0l3.813 3.187v-3.047c0-0.281 0.219-0.5 0.5-0.5h3c0.281 0 0.5 0.219 0.5 0.5v6.375l3.422 2.844c0.203 0.172 0.234 0.5 0.063 0.703z"></path></symbol>
  <symbol id="icon-stock" viewBox="0 0 26 28" fill="currentColor"><path d="M10 24c0 1.094-0.906 2-2 2s-2-0.906-2-2 0.906-2 2-2 2 0.906 2 2zM24 24c0 1.094-0.906 2-2 2s-2-0.906-2-2 0.906-2 2-2 2 0.906 2 2zM26 7v8c0 0.5-0.391 0.938-0.891 1l-16.312 1.906c0.078 0.359 0.203 0.719 0.203 1.094 0 0.359-0.219 0.688-0.375 1h14.375c0.547 0 1 0.453 1 1s-0.453 1-1 1h-16c-0.547 0-1-0.453-1-1 0-0.484 0.703-1.656 0.953-2.141l-2.766-12.859h-3.187c-0.547 0-1-0.453-1-1s0.453-1 1-1h4c1.047 0 1.078 1.25 1.234 2h18.766c0.547 0 1 0.453 1 1z"></path></symbol>









</svg>
